# Blender 4.2.3 LTS
# www.blender.org
mtllib asteroid.mtl
o Icosphere
v -0.033309 -1.242052 -0.024720
v 0.594496 -0.420222 0.435396
v -0.057774 -0.445842 0.634529
v -0.960881 -0.482465 0.003592
v -0.328710 -0.534597 -1.006688
v 0.777718 -0.462781 -0.561325
v 0.285374 0.539397 0.936217
v -0.604003 0.597484 0.578803
v -0.753495 0.508488 -0.577076
v 0.321339 0.334275 -0.819860
v 0.807622 0.322691 0.000166
v 0.023090 1.077400 0.011078
v -0.108991 -0.726488 0.427121
v 0.348453 -0.749061 0.265746
v 0.228266 -0.478162 0.562285
v 0.789723 -0.459268 0.040980
v 0.523058 -1.029012 -0.371311
v -0.624060 -0.993041 0.013365
v -0.694616 -0.519555 0.507474
v -0.182261 -1.039214 -0.585887
v -0.894939 -0.634404 -0.608022
v 0.306616 -0.601565 -0.939886
v 0.798370 -0.006443 0.197322
v 0.723986 -0.011924 -0.253530
v 0.014099 -0.008564 0.961245
v 0.527059 -0.057285 0.730290
v -0.987839 0.019955 0.337351
v -0.609125 -0.003902 0.874992
v -0.699106 0.019036 -0.886749
v -0.890253 -0.005388 -0.286009
v 0.474184 -0.028802 -0.665545
v 0.188876 -0.051782 -0.961506
v 0.696432 0.512745 0.503224
v -0.276923 0.578047 0.883686
v -0.833064 0.524232 0.001907
v -0.317746 0.561698 -0.775746
v 0.635072 0.408765 -0.355055
v 0.329938 0.839556 0.493726
v 0.537410 0.866330 0.000684
v -0.497694 0.962958 0.335518
v -0.556163 0.878120 -0.396966
v 0.171821 0.859635 -0.506419
v -0.069816 -0.958435 0.297787
v 0.455861 -0.578677 0.353015
v 0.132000 -0.470920 0.583390
v 0.697995 -0.403145 0.232122
v 0.706132 -0.780211 -0.496474
v -0.321334 -1.110780 0.002191
v -0.792749 -0.483421 0.268590
v -0.099882 -1.082282 -0.303916
v -0.608763 -0.594398 -0.828966
v 0.564042 -0.551903 -0.766032
v 0.743061 -0.179835 0.316660
v 0.669383 0.147272 -0.203100
v -0.008176 -0.237376 0.868064
v 0.419013 0.212035 0.806031
v -0.977875 -0.259594 0.162139
v -0.732922 0.251749 0.710640
v -0.566491 -0.274764 -1.008515
v -0.869640 0.262713 -0.423648
v 0.557954 -0.080306 -0.648479
v 0.144350 0.198550 -0.943022
v 0.524580 0.512567 0.727575
v -0.548222 0.535160 0.734926
v -0.825971 0.531516 -0.259309
v -0.017786 0.544721 -0.891525
v 0.681892 0.436970 -0.170151
v 0.266045 0.766480 0.833842
v 0.315099 1.027907 0.011821
v -0.637442 0.705447 0.446719
v -0.625482 0.732898 -0.480338
v 0.217728 0.643321 -0.674379
v -0.211080 -0.524056 0.544249
v 0.230775 -0.871525 0.208704
v 0.387327 -0.476517 0.525605
v 0.826869 -0.487380 -0.275095
v 0.287731 -1.195587 -0.274649
v -0.762458 -0.690421 0.019564
v -0.436956 -0.468915 0.632961
v -0.285355 -0.825956 -0.864060
v -0.935269 -0.543872 -0.275426
v 0.008309 -0.610800 -1.046238
v 0.795051 0.210831 0.129102
v 0.715382 -0.098382 -0.357733
v 0.131952 0.217385 0.925614
v 0.631447 -0.213630 0.602030
v -0.845775 0.255384 0.454453
v -0.446558 -0.250412 0.884448
v -0.705083 0.280893 -0.705542
v -0.971114 -0.230052 -0.161554
v 0.493897 0.210924 -0.606445
v -0.166032 -0.286416 -1.171965
v 0.769235 0.378725 0.234968
v 0.037578 0.606229 0.998444
v -0.797072 0.478896 0.260012
v -0.482976 0.598818 -0.673617
v 0.504641 0.292714 -0.536044
v 0.104290 1.038366 0.264716
v 0.646671 0.667357 -0.008454
v -0.195791 1.104688 0.193364
v -0.201139 0.952173 -0.153419
v 0.085185 0.983012 -0.265543
v 0.362936 0.816630 -0.298358
v 0.625121 0.630511 -0.194887
v 0.442164 0.694066 -0.493279
v -0.127809 0.898792 -0.419170
v -0.059794 0.716421 -0.710583
v -0.518516 0.685845 -0.629955
v -0.518409 0.966026 -0.009387
v -0.705827 0.800759 -0.251003
v -0.745375 0.794820 0.155794
v -0.161346 1.019714 0.491425
v -0.260559 0.847374 0.684557
v -0.009927 0.824921 0.829747
v 0.400735 0.950337 0.255308
v 0.532775 0.702410 0.534972
v 0.645531 0.688577 0.243343
v 0.615376 0.125779 -0.315039
v 0.612005 -0.008911 -0.477464
v 0.497725 0.201231 -0.590429
v -0.104611 0.284216 -0.984408
v -0.348470 0.036951 -1.120150
v -0.489932 0.303892 -0.895691
v -0.909911 0.291343 -0.153724
v -0.916631 0.011324 0.001014
v -0.927889 0.264181 0.179493
v -0.572027 0.296917 0.864284
v -0.336273 -0.022340 0.972929
v -0.177298 0.262330 0.933995
v 0.628812 0.246407 0.621829
v 0.701850 0.009224 0.479588
v 0.769565 0.236894 0.349987
v 0.330309 -0.035026 -0.816993
v 0.429697 -0.146146 -0.842738
v 0.263592 -0.247578 -0.962289
v -0.767643 -0.000191 -0.537205
v -0.794653 -0.282594 -0.757706
v -0.892467 -0.249150 -0.418323
v -0.840370 0.034091 0.529155
v -0.820914 -0.308749 0.464137
v -0.603581 -0.316263 0.708300
v 0.301172 -0.010470 0.848939
v 0.031983 -0.267529 0.831530
v 0.236846 -0.273453 0.761140
v 0.720353 -0.014674 -0.022392
v 0.742149 -0.175864 0.120567
v 0.771097 -0.155881 -0.101063
v 0.414151 -0.824023 -0.669483
v 0.148738 -0.944389 -0.453158
v 0.066939 -0.803033 -0.764130
v -0.561484 -0.882863 -0.638360
v -0.431873 -1.070855 -0.296049
v -0.764745 -0.821831 -0.277625
v -0.684852 -0.772762 0.295019
v -0.363562 -0.919882 0.293734
v -0.355552 -0.591644 0.507003
v 0.657100 -0.725934 -0.117996
v 0.550840 -0.652550 0.144451
v 0.461073 -0.835753 0.055435
v 0.013673 -0.577084 0.486390
v 0.183621 -0.739400 0.327490
v 0.245201 -0.592855 0.433244
vn -0.0318 -0.9794 0.1996
vn 0.6612 -0.5902 0.4631
vn 0.0576 -0.7729 0.6319
vn -0.8959 -0.4055 0.1816
vn -0.3231 -0.4198 -0.8481
vn 0.8835 0.0256 -0.4677
vn 0.4576 0.1199 0.8810
vn -0.8550 0.3210 0.4072
vn -0.7321 0.4022 -0.5498
vn 0.6714 0.1923 -0.7157
vn 0.9735 0.0584 -0.2209
vn 0.0167 0.9833 -0.1814
vn 0.1034 -0.4970 0.8616
vn 0.4252 -0.6353 0.6447
vn 0.1405 -0.7195 0.6801
vn 0.9123 -0.2618 0.3148
vn 0.5514 -0.8094 -0.2020
vn -0.6144 -0.7623 0.2035
vn -0.5773 -0.5379 0.6143
vn 0.0634 -0.9044 -0.4221
vn -0.8377 -0.3612 -0.4095
vn 0.4109 -0.3802 -0.8286
vn 0.9925 -0.1217 -0.0100
vn 0.9231 0.3190 -0.2146
vn 0.1803 -0.1605 0.9704
vn 0.5938 -0.1711 0.7862
vn -0.9626 0.0552 0.2653
vn -0.6157 -0.1183 0.7790
vn -0.7880 0.2021 -0.5816
vn -0.9612 0.0913 -0.2602
vn 0.6712 0.4138 -0.6150
vn 0.5131 0.2109 -0.8320
vn 0.8703 0.3117 0.3813
vn -0.3735 0.3639 0.8532
vn -0.9392 0.3414 0.0366
vn -0.2511 0.5577 -0.7911
vn 0.8971 0.1075 -0.4285
vn 0.3714 0.8425 0.3903
vn 0.7120 0.6830 -0.1627
vn -0.5261 0.7857 0.3254
vn -0.3716 0.8293 -0.4174
vn 0.2741 0.8107 -0.5174
vn 0.1083 -0.6488 0.7532
vn 0.4959 -0.6684 0.5543
vn 0.0776 -0.7417 0.6662
vn 0.8389 -0.3790 0.3908
vn 0.7902 -0.5236 -0.3185
vn -0.2863 -0.9321 0.2219
vn -0.8340 -0.4371 0.3367
vn -0.0622 -0.9317 -0.3578
vn -0.5183 -0.4026 -0.7545
vn 0.6382 -0.1896 -0.7462
vn 0.9489 -0.2233 0.2231
vn 0.9219 0.1079 -0.3722
vn 0.2019 -0.5390 0.8177
vn 0.5392 -0.0519 0.8406
vn -0.9690 -0.1659 0.1829
vn -0.8145 0.2256 0.5344
vn -0.5574 -0.1669 -0.8133
vn -0.9408 0.0625 -0.3332
vn 0.6880 0.4812 -0.5432
vn 0.4181 0.1569 -0.8947
vn 0.7167 0.2313 0.6579
vn -0.6186 0.4981 0.6077
vn -0.9157 0.3727 -0.1504
vn 0.0827 0.5344 -0.8412
vn 0.9182 0.1808 -0.3525
vn 0.4054 0.7058 0.5810
vn 0.3899 0.9103 -0.1391
vn -0.7535 0.4448 0.4842
vn -0.6715 0.5386 -0.5089
vn 0.4640 0.5374 -0.7041
vn 0.0583 -0.6625 0.7468
vn 0.4084 -0.6521 0.6387
vn 0.3165 -0.6825 0.6588
vn 0.9908 -0.1353 -0.0002
vn 0.3025 -0.9277 -0.2187
vn -0.8446 -0.4930 0.2087
vn -0.1070 -0.7294 0.6757
vn -0.1537 -0.6769 -0.7199
vn -0.9555 -0.2936 -0.0274
vn 0.1708 -0.4793 -0.8609
vn 0.9970 -0.0500 -0.0592
vn 0.8973 0.3155 -0.3086
vn 0.2264 -0.0751 0.9711
vn 0.7215 -0.3226 0.6127
vn -0.8630 0.3374 0.3760
vn -0.2568 -0.5220 0.8134
vn -0.7779 0.2542 -0.5747
vn -0.9852 0.0973 -0.1411
vn 0.8852 0.1091 -0.4521
vn 0.0384 -0.0752 -0.9964
vn 0.9653 0.2422 0.0974
vn -0.0236 0.2607 0.9651
vn -0.8836 0.3702 0.2866
vn -0.4945 0.3789 -0.7822
vn 0.7192 0.3126 -0.6206
vn 0.2374 0.9328 0.2711
vn 0.8975 0.4236 -0.1226
vn -0.1220 0.9925 0.0062
vn -0.1459 0.9419 -0.3026
vn 0.1022 0.9226 -0.3720
vn 0.5345 0.7687 -0.3514
vn 0.8451 0.4386 -0.3056
vn 0.6460 0.5235 -0.5555
vn -0.0957 0.8997 -0.4259
vn -0.0039 0.7511 -0.6601
vn -0.5461 0.4205 -0.7245
vn -0.3996 0.9082 -0.1243
vn -0.7749 0.5967 -0.2085
vn -0.8278 0.5380 0.1593
vn -0.0539 0.9044 0.4232
vn -0.4096 0.6730 0.6159
vn -0.0394 0.7700 0.6369
vn 0.4939 0.8235 0.2793
vn 0.6574 0.6453 0.3892
vn 0.8422 0.5277 0.1106
vn 0.8941 0.2035 -0.3989
vn 0.8259 0.3694 -0.4259
vn 0.9306 0.0720 -0.3590
vn 0.0603 0.3551 -0.9329
vn -0.1837 0.2748 -0.9438
vn -0.4249 0.4950 -0.7579
vn -0.9839 0.1558 -0.0881
vn -0.9881 0.1089 -0.1083
vn -0.9551 0.2866 0.0757
vn -0.4959 0.2506 0.8314
vn -0.1209 -0.0945 0.9882
vn -0.0986 0.0706 0.9926
vn 0.7939 -0.0055 0.6081
vn 0.8984 -0.0536 0.4360
vn 0.9595 0.0305 0.2802
vn 0.6211 0.3216 -0.7147
vn 0.5869 0.3430 -0.7335
vn 0.4956 0.1057 -0.8621
vn -0.9316 0.1031 -0.3486
vn -0.8615 0.0296 -0.5068
vn -0.9425 0.1589 -0.2940
vn -0.8239 -0.0432 0.5651
vn -0.8047 -0.3171 0.5018
vn -0.5804 -0.4689 0.6658
vn 0.3811 -0.2068 0.9011
vn 0.1777 -0.6278 0.7578
vn 0.2992 -0.5273 0.7953
vn 0.9851 0.0935 -0.1445
vn 0.9974 -0.0606 0.0380
vn 0.9760 0.2167 0.0216
vn 0.2787 -0.7258 -0.6289
vn 0.1100 -0.8039 -0.5845
vn 0.2153 -0.7963 -0.5653
vn -0.4706 -0.7444 -0.4738
vn -0.3318 -0.9271 -0.1745
vn -0.7566 -0.6537 -0.0148
vn -0.6495 -0.5689 0.5045
vn -0.1947 -0.6984 0.6887
vn -0.0497 -0.6195 0.7834
vn 0.7710 -0.5607 0.3018
vn 0.6529 -0.5803 0.4868
vn 0.5958 -0.6406 0.4845
vn 0.1191 -0.6148 0.7797
vn 0.2599 -0.5707 0.7789
vn 0.1968 -0.6848 0.7017
vt 0.000069 0.818137
vt 0.039429 0.795413
vt 0.039429 0.840861
vt 0.157508 0.727241
vt 0.118148 0.704517
vt 0.157508 0.681792
vt 0.000069 0.090965
vt 0.039429 0.068241
vt 0.039429 0.113689
vt 0.000069 0.272758
vt 0.039429 0.250034
vt 0.039429 0.295482
vt 0.000069 0.454551
vt 0.039429 0.431827
vt 0.039429 0.477275
vt 0.196868 0.704517
vt 0.157508 0.909034
vt 0.157508 0.863585
vt 0.196868 0.886310
vt 0.157508 0.181862
vt 0.157508 0.136413
vt 0.196868 0.159138
vt 0.157508 0.363655
vt 0.157508 0.318206
vt 0.196868 0.340931
vt 0.157508 0.545448
vt 0.157508 0.499999
vt 0.196868 0.522724
vt 0.196868 0.749965
vt 0.196868 0.931758
vt 0.196868 0.204586
vt 0.196868 0.386379
vt 0.196868 0.568172
vt 0.314946 0.818137
vt 0.314946 0.772689
vt 0.354306 0.795413
vt 0.314946 0.999931
vt 0.314946 0.954483
vt 0.354306 0.977207
vt 0.314946 0.272758
vt 0.314946 0.227310
vt 0.354306 0.250034
vt 0.314946 0.454551
vt 0.314946 0.409103
vt 0.354306 0.431827
vt 0.314946 0.636344
vt 0.314946 0.590896
vt 0.354306 0.613620
vt 0.393666 0.590896
vt 0.393666 0.545448
vt 0.433026 0.568172
vt 0.354306 0.568172
vt 0.314946 0.545448
vt 0.314946 0.499999
vt 0.354306 0.522724
vt 0.393666 0.409103
vt 0.393666 0.363655
vt 0.433026 0.386379
vt 0.354306 0.386379
vt 0.314946 0.363655
vt 0.314946 0.318206
vt 0.354306 0.340931
vt 0.393666 0.227310
vt 0.393666 0.181862
vt 0.433026 0.204586
vt 0.354306 0.204586
vt 0.314946 0.181862
vt 0.314946 0.136413
vt 0.354306 0.159138
vt 0.393666 0.954482
vt 0.393666 0.909034
vt 0.433026 0.931758
vt 0.354306 0.931758
vt 0.314946 0.909034
vt 0.314946 0.863586
vt 0.354306 0.886310
vt 0.393666 0.772689
vt 0.393666 0.727241
vt 0.433026 0.749965
vt 0.354306 0.749965
vt 0.314946 0.727241
vt 0.314946 0.681792
vt 0.354306 0.704517
vt 0.236227 0.590896
vt 0.275587 0.568172
vt 0.275587 0.613620
vt 0.236227 0.545448
vt 0.236227 0.499999
vt 0.275587 0.477275
vt 0.275587 0.522724
vt 0.236227 0.409103
vt 0.275587 0.386379
vt 0.275587 0.431827
vt 0.236227 0.363655
vt 0.236227 0.318206
vt 0.275587 0.295482
vt 0.275587 0.340931
vt 0.236227 0.227310
vt 0.275587 0.204586
vt 0.275587 0.250034
vt 0.236227 0.181862
vt 0.236227 0.136413
vt 0.275587 0.113689
vt 0.275587 0.159138
vt 0.236227 0.954482
vt 0.275587 0.931758
vt 0.275587 0.977207
vt 0.236227 0.909034
vt 0.236227 0.863585
vt 0.275587 0.840861
vt 0.275587 0.886310
vt 0.236227 0.772689
vt 0.275587 0.749965
vt 0.275587 0.795413
vt 0.236227 0.727241
vt 0.236227 0.681792
vt 0.275587 0.659068
vt 0.275587 0.704517
vt 0.236227 0.454551
vt 0.196868 0.477275
vt 0.157508 0.454551
vt 0.157508 0.409103
vt 0.196868 0.431827
vt 0.236227 0.272758
vt 0.196868 0.295482
vt 0.157508 0.272758
vt 0.157508 0.227310
vt 0.196868 0.250034
vt 0.236227 0.090965
vt 0.196868 0.113689
vt 0.157508 0.090965
vt 0.157508 0.045517
vt 0.196868 0.068241
vt 0.236227 0.818137
vt 0.196868 0.840861
vt 0.157508 0.818137
vt 0.157508 0.772689
vt 0.196868 0.795413
vt 0.236227 0.636344
vt 0.196868 0.659068
vt 0.157508 0.636344
vt 0.157508 0.590896
vt 0.196868 0.613620
vt 0.078788 0.499999
vt 0.118148 0.477275
vt 0.118148 0.522724
vt 0.078788 0.454551
vt 0.078788 0.409103
vt 0.118148 0.386379
vt 0.118148 0.431827
vt 0.078788 0.318206
vt 0.118148 0.295482
vt 0.118148 0.340931
vt 0.078788 0.272758
vt 0.078788 0.227310
vt 0.118148 0.204586
vt 0.118148 0.250034
vt 0.078788 0.136413
vt 0.118148 0.113689
vt 0.118148 0.159138
vt 0.078788 0.090965
vt 0.078788 0.045517
vt 0.118148 0.022793
vt 0.118148 0.068241
vt 0.118148 0.613620
vt 0.118148 0.659068
vt 0.078788 0.681792
vt 0.039429 0.659068
vt 0.078788 0.636344
vt 0.078788 0.863585
vt 0.118148 0.840861
vt 0.118148 0.886310
vt 0.078788 0.818137
vt 0.078788 0.772689
vt 0.118148 0.749965
vt 0.118148 0.795413
vt 0.039429 0.613620
vt 0.078788 0.590896
vt 0.000069 0.636344
vt 0.118148 0.568172
vt 0.157508 0.000069
vt 0.196868 0.022793
vt 0.236227 0.045517
vt 0.275587 0.068241
vt 0.314946 0.090965
vt 0.354306 0.659068
vt 0.393666 0.681792
vt 0.433026 0.704517
vt 0.472386 0.727241
vt 0.354306 0.840861
vt 0.393666 0.863585
vt 0.433026 0.886310
vt 0.472386 0.909034
vt 0.354306 0.113689
vt 0.393666 0.136413
vt 0.433026 0.159138
vt 0.472386 0.181862
vt 0.354306 0.295482
vt 0.393666 0.318206
vt 0.433026 0.340931
vt 0.472386 0.363655
vt 0.354306 0.477275
vt 0.393666 0.499999
vt 0.433026 0.522724
vt 0.472386 0.545448
s 1
usemtl Material.002
f 1/1/1 74/2/74 43/3/43
f 2/4/2 44/5/44 46/6/46
f 1/7/1 43/8/43 48/9/48
f 1/10/1 48/11/48 50/12/50
f 1/13/1 50/14/50 77/15/77
f 2/4/2 46/6/46 53/16/53
f 3/17/3 45/18/45 55/19/55
f 4/20/4 49/21/49 57/22/57
f 5/23/5 51/24/51 59/25/59
f 6/26/6 52/27/52 61/28/61
f 2/4/2 53/16/53 86/29/86
f 3/17/3 55/19/55 88/30/88
f 4/20/4 57/22/57 90/31/90
f 5/23/5 59/25/59 92/32/92
f 6/26/6 61/28/61 84/33/84
f 7/34/7 63/35/63 68/36/68
f 8/37/8 64/38/64 70/39/70
f 9/40/9 65/41/65 71/42/71
f 10/43/10 66/44/66 72/45/72
f 11/46/11 67/47/67 99/48/99
f 39/49/39 103/50/103 69/51/69
f 39/49/39 104/52/104 103/50/103
f 37/53/37 97/54/97 105/55/105
f 42/56/42 106/57/106 102/58/102
f 42/56/42 107/59/107 106/57/106
f 36/60/36 96/61/96 108/62/108
f 41/63/41 109/64/109 101/65/101
f 41/63/41 110/66/110 109/64/109
f 35/67/35 95/68/95 111/69/111
f 40/70/40 112/71/112 100/72/100
f 40/70/40 113/73/113 112/71/112
f 34/74/34 94/75/94 114/76/114
f 38/77/38 115/78/115 98/79/98
f 38/77/38 116/80/116 115/78/115
f 33/81/33 93/82/93 117/83/117
f 24/84/24 118/85/118 54/86/54
f 24/84/24 119/87/119 118/85/118
f 31/88/31 91/89/91 120/90/120
f 32/91/32 121/92/121 62/93/62
f 32/91/32 122/94/122 121/92/121
f 29/95/29 89/96/89 123/97/123
f 30/98/30 124/99/124 60/100/60
f 30/98/30 125/101/125 124/99/124
f 27/102/27 87/103/87 126/104/126
f 28/105/28 127/106/127 58/107/58
f 28/105/28 128/108/128 127/106/127
f 25/109/25 85/110/85 129/111/129
f 26/112/26 130/113/130 56/114/56
f 26/112/26 131/115/131 130/113/130
f 23/116/23 83/117/83 132/118/132
f 31/88/31 133/119/133 91/89/91
f 31/88/31 134/120/134 133/119/133
f 22/121/22 82/122/82 135/123/135
f 29/95/29 136/124/136 89/96/89
f 29/95/29 137/125/137 136/124/136
f 21/126/21 81/127/81 138/128/138
f 27/102/27 139/129/139 87/103/87
f 27/102/27 140/130/140 139/129/139
f 19/131/19 79/132/79 141/133/141
f 25/109/25 142/134/142 85/110/85
f 25/109/25 143/135/143 142/134/142
f 15/136/15 75/137/75 144/138/144
f 23/116/23 145/139/145 83/117/83
f 23/116/23 146/140/146 145/139/145
f 16/141/16 76/142/76 147/143/147
f 17/144/17 148/145/148 47/146/47
f 17/144/17 149/147/149 148/145/148
f 20/148/20 80/149/80 150/150/150
f 20/151/20 151/152/151 80/153/80
f 20/151/20 152/154/152 151/152/151
f 18/155/18 78/156/78 153/157/153
f 18/158/18 154/159/154 78/160/78
f 18/158/18 155/161/155 154/159/154
f 13/162/13 73/163/73 156/164/156
f 16/141/16 157/165/157 76/142/76
f 16/141/16 158/166/158 157/165/157
f 14/167/14 74/168/74 159/169/159
f 13/170/13 160/171/160 73/172/73
f 13/170/13 161/173/161 160/171/160
f 14/174/14 44/175/44 162/176/162
f 162/176/162 75/137/75 15/136/15
f 162/176/162 44/175/44 75/137/75
f 44/175/44 2/4/2 75/137/75
f 160/171/160 162/176/162 15/136/15
f 160/171/160 161/173/161 162/176/162
f 161/173/161 14/174/14 162/176/162
f 73/172/73 45/18/45 3/17/3
f 73/172/73 160/171/160 45/18/45
f 160/171/160 15/136/15 45/18/45
f 159/169/159 77/177/77 17/178/17
f 159/169/159 74/168/74 77/177/77
f 74/168/74 1/179/1 77/177/77
f 157/165/157 159/169/159 17/178/17
f 157/165/157 158/166/158 159/169/159
f 158/166/158 14/167/14 159/169/159
f 76/142/76 47/180/47 6/26/6
f 76/142/76 157/165/157 47/180/47
f 157/165/157 17/178/17 47/180/47
f 156/164/156 79/132/79 19/131/19
f 156/164/156 73/163/73 79/132/79
f 73/163/73 3/181/3 79/132/79
f 154/159/154 156/164/156 19/131/19
f 154/159/154 155/161/155 156/164/156
f 155/161/155 13/162/13 156/164/156
f 78/160/78 49/21/49 4/20/4
f 78/160/78 154/159/154 49/21/49
f 154/159/154 19/131/19 49/21/49
f 153/157/153 81/127/81 21/126/21
f 153/157/153 78/156/78 81/127/81
f 78/156/78 4/20/4 81/127/81
f 151/152/151 153/157/153 21/126/21
f 151/152/151 152/154/152 153/157/153
f 152/154/152 18/155/18 153/157/153
f 80/153/80 51/24/51 5/23/5
f 80/153/80 151/152/151 51/24/51
f 151/152/151 21/126/21 51/24/51
f 150/150/150 82/122/82 22/121/22
f 150/150/150 80/149/80 82/122/82
f 80/149/80 5/23/5 82/122/82
f 148/145/148 150/150/150 22/121/22
f 148/145/148 149/147/149 150/150/150
f 149/147/149 20/148/20 150/150/150
f 47/146/47 52/27/52 6/26/6
f 47/146/47 148/145/148 52/27/52
f 148/145/148 22/121/22 52/27/52
f 147/143/147 84/33/84 24/84/24
f 147/143/147 76/142/76 84/33/84
f 76/142/76 6/26/6 84/33/84
f 145/139/145 147/143/147 24/84/24
f 145/139/145 146/140/146 147/143/147
f 146/140/146 16/141/16 147/143/147
f 83/117/83 54/86/54 11/46/11
f 83/117/83 145/139/145 54/86/54
f 145/139/145 24/84/24 54/86/54
f 144/138/144 86/29/86 26/112/26
f 144/138/144 75/137/75 86/29/86
f 75/137/75 2/4/2 86/29/86
f 142/134/142 144/138/144 26/112/26
f 142/134/142 143/135/143 144/138/144
f 143/135/143 15/136/15 144/138/144
f 85/110/85 56/114/56 7/34/7
f 85/110/85 142/134/142 56/114/56
f 142/134/142 26/112/26 56/114/56
f 141/133/141 88/182/88 28/183/28
f 141/133/141 79/132/79 88/182/88
f 79/132/79 3/181/3 88/182/88
f 139/129/139 141/133/141 28/183/28
f 139/129/139 140/130/140 141/133/141
f 140/130/140 19/131/19 141/133/141
f 87/103/87 58/184/58 8/185/8
f 87/103/87 139/129/139 58/184/58
f 139/129/139 28/183/28 58/184/58
f 138/128/138 90/31/90 30/98/30
f 138/128/138 81/127/81 90/31/90
f 81/127/81 4/20/4 90/31/90
f 136/124/136 138/128/138 30/98/30
f 136/124/136 137/125/137 138/128/138
f 137/125/137 21/126/21 138/128/138
f 89/96/89 60/100/60 9/40/9
f 89/96/89 136/124/136 60/100/60
f 136/124/136 30/98/30 60/100/60
f 135/123/135 92/32/92 32/91/32
f 135/123/135 82/122/82 92/32/92
f 82/122/82 5/23/5 92/32/92
f 133/119/133 135/123/135 32/91/32
f 133/119/133 134/120/134 135/123/135
f 134/120/134 22/121/22 135/123/135
f 91/89/91 62/93/62 10/43/10
f 91/89/91 133/119/133 62/93/62
f 133/119/133 32/91/32 62/93/62
f 132/118/132 93/82/93 33/81/33
f 132/118/132 83/117/83 93/82/93
f 83/117/83 11/46/11 93/82/93
f 130/113/130 132/118/132 33/81/33
f 130/113/130 131/115/131 132/118/132
f 131/115/131 23/116/23 132/118/132
f 56/114/56 63/35/63 7/34/7
f 56/114/56 130/113/130 63/35/63
f 130/113/130 33/81/33 63/35/63
f 129/111/129 94/75/94 34/74/34
f 129/111/129 85/110/85 94/75/94
f 85/110/85 7/34/7 94/75/94
f 127/106/127 129/111/129 34/74/34
f 127/106/127 128/108/128 129/111/129
f 128/108/128 25/109/25 129/111/129
f 58/107/58 64/38/64 8/37/8
f 58/107/58 127/106/127 64/38/64
f 127/106/127 34/74/34 64/38/64
f 126/104/126 95/68/95 35/67/35
f 126/104/126 87/103/87 95/68/95
f 87/103/87 8/185/8 95/68/95
f 124/99/124 126/104/126 35/67/35
f 124/99/124 125/101/125 126/104/126
f 125/101/125 27/102/27 126/104/126
f 60/100/60 65/41/65 9/40/9
f 60/100/60 124/99/124 65/41/65
f 124/99/124 35/67/35 65/41/65
f 123/97/123 96/61/96 36/60/36
f 123/97/123 89/96/89 96/61/96
f 89/96/89 9/40/9 96/61/96
f 121/92/121 123/97/123 36/60/36
f 121/92/121 122/94/122 123/97/123
f 122/94/122 29/95/29 123/97/123
f 62/93/62 66/44/66 10/43/10
f 62/93/62 121/92/121 66/44/66
f 121/92/121 36/60/36 66/44/66
f 120/90/120 97/54/97 37/53/37
f 120/90/120 91/89/91 97/54/97
f 91/89/91 10/43/10 97/54/97
f 118/85/118 120/90/120 37/53/37
f 118/85/118 119/87/119 120/90/120
f 119/87/119 31/88/31 120/90/120
f 54/86/54 67/47/67 11/46/11
f 54/86/54 118/85/118 67/47/67
f 118/85/118 37/53/37 67/47/67
f 117/83/117 99/186/99 39/187/39
f 117/83/117 93/82/93 99/186/99
f 93/82/93 11/46/11 99/186/99
f 115/78/115 117/83/117 39/187/39
f 115/78/115 116/80/116 117/83/117
f 116/80/116 33/81/33 117/83/117
f 98/79/98 69/188/69 12/189/12
f 98/79/98 115/78/115 69/188/69
f 115/78/115 39/187/39 69/188/69
f 114/76/114 68/190/68 38/191/38
f 114/76/114 94/75/94 68/190/68
f 94/75/94 7/34/7 68/190/68
f 112/71/112 114/76/114 38/191/38
f 112/71/112 113/73/113 114/76/114
f 113/73/113 34/74/34 114/76/114
f 100/72/100 98/192/98 12/193/12
f 100/72/100 112/71/112 98/192/98
f 112/71/112 38/191/38 98/192/98
f 111/69/111 70/194/70 40/195/40
f 111/69/111 95/68/95 70/194/70
f 95/68/95 8/185/8 70/194/70
f 109/64/109 111/69/111 40/195/40
f 109/64/109 110/66/110 111/69/111
f 110/66/110 35/67/35 111/69/111
f 101/65/101 100/196/100 12/197/12
f 101/65/101 109/64/109 100/196/100
f 109/64/109 40/195/40 100/196/100
f 108/62/108 71/198/71 41/199/41
f 108/62/108 96/61/96 71/198/71
f 96/61/96 9/40/9 71/198/71
f 106/57/106 108/62/108 41/199/41
f 106/57/106 107/59/107 108/62/108
f 107/59/107 36/60/36 108/62/108
f 102/58/102 101/200/101 12/201/12
f 102/58/102 106/57/106 101/200/101
f 106/57/106 41/199/41 101/200/101
f 105/55/105 72/202/72 42/203/42
f 105/55/105 97/54/97 72/202/72
f 97/54/97 10/43/10 72/202/72
f 103/50/103 105/55/105 42/203/42
f 103/50/103 104/52/104 105/55/105
f 104/52/104 37/53/37 105/55/105
f 69/51/69 102/204/102 12/205/12
f 69/51/69 103/50/103 102/204/102
f 103/50/103 42/203/42 102/204/102
f 99/48/99 104/52/104 39/49/39
f 99/48/99 67/47/67 104/52/104
f 67/47/67 37/53/37 104/52/104
f 72/45/72 107/59/107 42/56/42
f 72/45/72 66/44/66 107/59/107
f 66/44/66 36/60/36 107/59/107
f 71/42/71 110/66/110 41/63/41
f 71/42/71 65/41/65 110/66/110
f 65/41/65 35/67/35 110/66/110
f 70/39/70 113/73/113 40/70/40
f 70/39/70 64/38/64 113/73/113
f 64/38/64 34/74/34 113/73/113
f 68/36/68 116/80/116 38/77/38
f 68/36/68 63/35/63 116/80/116
f 63/35/63 33/81/33 116/80/116
f 84/33/84 119/87/119 24/84/24
f 84/33/84 61/28/61 119/87/119
f 61/28/61 31/88/31 119/87/119
f 92/32/92 122/94/122 32/91/32
f 92/32/92 59/25/59 122/94/122
f 59/25/59 29/95/29 122/94/122
f 90/31/90 125/101/125 30/98/30
f 90/31/90 57/22/57 125/101/125
f 57/22/57 27/102/27 125/101/125
f 88/30/88 128/108/128 28/105/28
f 88/30/88 55/19/55 128/108/128
f 55/19/55 25/109/25 128/108/128
f 86/29/86 131/115/131 26/112/26
f 86/29/86 53/16/53 131/115/131
f 53/16/53 23/116/23 131/115/131
f 61/28/61 134/120/134 31/88/31
f 61/28/61 52/27/52 134/120/134
f 52/27/52 22/121/22 134/120/134
f 59/25/59 137/125/137 29/95/29
f 59/25/59 51/24/51 137/125/137
f 51/24/51 21/126/21 137/125/137
f 57/22/57 140/130/140 27/102/27
f 57/22/57 49/21/49 140/130/140
f 49/21/49 19/131/19 140/130/140
f 55/19/55 143/135/143 25/109/25
f 55/19/55 45/18/45 143/135/143
f 45/18/45 15/136/15 143/135/143
f 53/16/53 146/140/146 23/116/23
f 53/16/53 46/6/46 146/140/146
f 46/6/46 16/141/16 146/140/146
f 77/15/77 149/147/149 17/144/17
f 77/15/77 50/14/50 149/147/149
f 50/14/50 20/148/20 149/147/149
f 50/12/50 152/154/152 20/151/20
f 50/12/50 48/11/48 152/154/152
f 48/11/48 18/155/18 152/154/152
f 48/9/48 155/161/155 18/158/18
f 48/9/48 43/8/43 155/161/155
f 43/8/43 13/162/13 155/161/155
f 46/6/46 158/166/158 16/141/16
f 46/6/46 44/5/44 158/166/158
f 44/5/44 14/167/14 158/166/158
f 43/3/43 161/173/161 13/170/13
f 43/3/43 74/2/74 161/173/161
f 74/2/74 14/174/14 161/173/161
