# Blender 4.2.3 LTS
# www.blender.org
mtllib AvaxShip.mtl
o Cube
v -1.052728 0.963654 -0.383617
v -5.661915 -0.123607 2.544517
v -8.021965 0.197515 -1.782620
v -0.003183 -0.017761 -2.730721
v -3.272086 0.000000 3.870755
v -0.003325 1.345414 -1.777793
v -0.003325 -0.253312 -1.777793
v -0.004348 1.232663 5.132535
v -0.429730 0.955239 5.004566
v -2.772147 -0.158175 4.283343
v -0.503408 1.000000 -1.212398
v -0.134918 1.000000 -1.214144
v -0.198324 0.030896 -1.578466
v -0.078917 0.955239 5.019811
v -0.150203 -0.256386 5.495239
v -0.004283 1.364658 4.692395
v -0.057385 0.210473 5.255515
v -1.003439 1.049653 -1.009149
v -3.861161 0.316765 -0.949775
v -0.141795 0.000000 -2.253861
v -0.430961 0.222633 -1.465395
v -0.742728 0.878664 -1.676813
v -3.580617 0.359010 -1.436416
v -0.711836 0.342189 -1.626089
v -3.021794 0.387865 -0.619525
v -0.033295 1.000000 5.048223
v -0.504332 1.000000 5.027754
v -0.145947 0.038479 5.314571
v -0.549271 1.028649 4.939835
v -0.515275 0.878885 4.955128
v -0.084555 0.124998 5.364692
v -1.022760 -0.070983 4.968139
v -0.175452 -0.005050 4.901881
v -0.069700 0.930457 4.872298
v -0.420513 0.936129 4.858152
v -0.048124 0.151546 4.812911
v -3.769533 0.080359 -0.928679
v -1.009455 0.344226 -0.629884
v -1.038367 0.766621 -0.680608
v -5.948719 -0.012740 -0.571394
v -0.004408 -0.521299 5.539976
v -0.004415 0.096400 5.585932
v -1.065698 0.016589 4.995327
v -1.050684 -0.037474 5.083241
v 1.052728 0.963654 -0.383617
v 5.661915 -0.123607 2.544517
v 8.021965 0.197515 -1.782620
v 0.003183 -0.017761 -2.730721
v 3.272086 0.000000 3.870755
v 0.003325 1.345414 -1.777793
v 0.003325 -0.253312 -1.777793
v 0.004348 1.232663 5.132535
v 0.429730 0.955239 5.004566
v 2.772147 -0.158175 4.283343
v 0.503408 1.000000 -1.212398
v 0.134918 1.000000 -1.214144
v 0.198324 0.030896 -1.578466
v 0.078917 0.955239 5.019811
v 0.150203 -0.256386 5.495239
v 0.004283 1.364658 4.692395
v 0.057385 0.210473 5.255515
v 1.003439 1.049653 -1.009149
v 3.861161 0.316765 -0.949775
v 0.141795 0.000000 -2.253861
v 0.430961 0.222633 -1.465395
v 0.742728 0.878664 -1.676813
v 3.580617 0.359010 -1.436416
v 0.711836 0.342189 -1.626089
v 3.021794 0.387865 -0.619525
v 0.033295 1.000000 5.048223
v 0.504332 1.000000 5.027754
v 0.145947 0.038479 5.314571
v 0.549271 1.028649 4.939835
v 0.515275 0.878885 4.955128
v 0.084555 0.124998 5.364692
v 1.022760 -0.070983 4.968139
v 0.175452 -0.005050 4.901881
v 0.069700 0.930457 4.872298
v 0.420513 0.936129 4.858152
v 0.048124 0.151546 4.812911
v 3.769533 0.080359 -0.928679
v 1.009455 0.344226 -0.629884
v 1.038367 0.766621 -0.680608
v 5.948719 -0.012740 -0.571394
v 0.004408 -0.521299 5.539976
v 0.004415 0.096400 5.585932
v 1.065698 0.016589 4.995327
v 1.050684 -0.037474 5.083241
vn -0.7331 -0.6728 -0.0993
vn -0.7175 0.3050 -0.6262
vn -0.9156 -0.1788 -0.3601
vn -0.6297 -0.5270 0.5708
vn -0.6259 -0.5286 0.5735
vn -0.6138 -0.5350 0.5806
vn -0.8311 0.0884 0.5491
vn -0.6897 0.6126 0.3861
vn -0.6643 -0.1711 0.7276
vn -0.3982 0.5674 -0.7207
vn -0.1190 0.9496 -0.2899
vn 0.1996 0.9520 -0.2321
vn 0.5073 0.7050 0.4956
vn 0.9002 0.4344 -0.0293
vn 0.8970 0.1069 0.4289
vn -0.8314 0.4889 -0.2640
vn -0.9805 0.1954 0.0202
vn -0.9713 0.1892 -0.1439
vn 0.0020 0.7612 -0.6486
vn -0.9724 -0.0911 -0.2150
vn -0.9470 0.1579 0.2797
vn -0.9652 0.1500 0.2144
vn 0.8225 0.4235 -0.3797
vn 0.7578 0.1555 -0.6337
vn 0.8104 -0.1052 -0.5764
vn -0.0397 -0.9938 -0.1036
vn 0.6339 0.7715 -0.0537
vn -0.7424 0.6638 -0.0903
vn -0.3834 0.8698 0.3105
vn -0.7862 -0.3260 -0.5250
vn -0.2640 -0.2403 -0.9341
vn -0.7937 -0.3320 -0.5097
vn 0.8314 0.4132 -0.3716
vn 0.8155 -0.1086 -0.5685
vn 0.5409 -0.2512 -0.8027
vn 0.0058 1.0000 -0.0003
vn -0.4595 -0.8005 -0.3849
vn 0.0794 -0.9926 -0.0921
vn 0.0009 -0.8631 -0.5051
vn -0.8590 0.1103 0.4999
vn -0.9271 -0.3506 0.1328
vn -0.9270 -0.3507 0.1328
vn 0.0731 0.1275 0.9891
vn -0.9469 0.1664 0.2751
vn -0.0367 0.9816 -0.1872
vn -0.9860 0.0699 0.1516
vn -0.9862 0.1558 0.0567
vn -0.6342 -0.2188 0.7416
vn 0.3105 0.6689 0.6754
vn -0.0077 -0.1197 -0.9928
vn 0.4852 0.3115 0.8170
vn -0.6902 -0.5755 0.4386
vn 0.0802 -0.0292 0.9964
vn -0.0414 -0.0771 0.9962
vn -0.9991 -0.0314 -0.0268
vn -0.0141 -0.9891 0.1468
vn 0.1665 0.0036 -0.9860
vn -0.1428 -0.9475 -0.2859
vn 0.9895 0.0824 -0.1185
vn -0.1038 -0.9085 -0.4047
vn -0.8785 0.2563 0.4031
vn -0.6105 0.7791 -0.1421
vn -0.3452 0.6418 0.6848
vn -0.9528 -0.0825 -0.2920
vn -0.8846 -0.3679 0.2866
vn 0.0721 0.7180 0.6923
vn -0.2518 0.9600 0.1228
vn -0.9469 0.1663 0.2751
vn -0.9668 0.2530 -0.0366
vn 0.5073 0.7050 0.4957
vn -0.0438 -0.9891 -0.1408
vn -0.0419 -0.9891 -0.1408
vn -0.0434 -0.9891 -0.1408
vn 0.3917 0.6995 -0.5978
vn -0.3091 0.6813 0.6635
vn -0.0055 0.9682 -0.2501
vn 0.0214 0.9985 -0.0499
vn 0.0732 -0.8085 0.5839
vn -0.0374 -0.5081 0.8605
vn -0.9857 0.0702 0.1530
vn -0.9305 0.1837 0.3168
vn -0.9862 0.1552 0.0569
vn -0.0521 0.9825 -0.1786
vn -0.3332 0.9131 0.2352
vn -0.9535 -0.0994 -0.2846
vn 0.0002 0.9990 0.0440
vn 0.3901 0.3148 0.8653
vn -0.0418 0.9991 -0.0025
vn 0.1193 -0.9906 -0.0672
vn 0.1190 -0.9908 -0.0651
vn 0.1190 -0.9908 -0.0652
vn -0.3521 -0.0073 0.9359
vn -0.6152 0.7832 0.0906
vn 0.0867 -0.9914 -0.0979
vn 0.0882 -0.9905 -0.1057
vn 0.0939 -0.9881 -0.1215
vn 0.7331 -0.6729 -0.0993
vn 0.9156 -0.1789 -0.3601
vn 0.7175 0.3050 -0.6262
vn 0.6296 -0.5269 0.5709
vn 0.6138 -0.5349 0.5806
vn 0.6259 -0.5285 0.5735
vn 0.8311 0.0885 0.5490
vn 0.6644 -0.1711 0.7276
vn 0.6897 0.6126 0.3862
vn 0.3982 0.5674 -0.7207
vn -0.1996 0.9520 -0.2322
vn 0.1190 0.9496 -0.2899
vn -0.5072 0.7050 0.4957
vn -0.8970 0.1069 0.4288
vn -0.9002 0.4344 -0.0293
vn 0.8314 0.4889 -0.2640
vn 0.9713 0.1892 -0.1439
vn 0.9805 0.1953 0.0202
vn -0.0019 0.7611 -0.6486
vn 0.9724 -0.0911 -0.2150
vn 0.9652 0.1500 0.2143
vn 0.9470 0.1578 0.2797
vn -0.8225 0.4235 -0.3797
vn -0.8104 -0.1052 -0.5764
vn -0.7578 0.1555 -0.6337
vn 0.0397 -0.9938 -0.1037
vn -0.6339 0.7715 -0.0537
vn 0.3834 0.8698 0.3104
vn 0.7424 0.6638 -0.0903
vn 0.7862 -0.3260 -0.5250
vn 0.7937 -0.3320 -0.5097
vn 0.2640 -0.2403 -0.9341
vn -0.8314 0.4132 -0.3716
vn -0.5409 -0.2512 -0.8027
vn -0.8155 -0.1086 -0.5685
vn -0.0058 1.0000 -0.0003
vn 0.4595 -0.8005 -0.3849
vn -0.0009 -0.8631 -0.5051
vn -0.0794 -0.9926 -0.0921
vn 0.8590 0.1104 0.4999
vn 0.9270 -0.3507 0.1328
vn 0.9271 -0.3506 0.1328
vn -0.0731 0.1274 0.9891
vn 0.0367 0.9816 -0.1873
vn 0.9469 0.1664 0.2751
vn 0.9860 0.0699 0.1515
vn 0.9862 0.1557 0.0566
vn -0.3106 0.6689 0.6754
vn 0.6342 -0.2188 0.7416
vn 0.0077 -0.1197 -0.9928
vn 0.6902 -0.5755 0.4387
vn -0.4852 0.3115 0.8171
vn -0.0802 -0.0292 0.9964
vn 0.0414 -0.0771 0.9962
vn 0.9991 -0.0314 -0.0268
vn 0.0141 -0.9891 0.1468
vn -0.1666 0.0036 -0.9860
vn -0.9895 0.0824 -0.1186
vn 0.1428 -0.9476 -0.2859
vn 0.1038 -0.9085 -0.4047
vn 0.8785 0.2563 0.4031
vn 0.6105 0.7791 -0.1422
vn 0.3452 0.6418 0.6848
vn 0.9528 -0.0825 -0.2920
vn 0.8846 -0.3679 0.2866
vn -0.0721 0.7180 0.6923
vn 0.2517 0.9600 0.1228
vn 0.9668 0.2530 -0.0366
vn 0.9470 0.1663 0.2750
vn -0.5073 0.7049 0.4957
vn 0.0438 -0.9891 -0.1408
vn 0.0434 -0.9891 -0.1408
vn 0.0419 -0.9891 -0.1408
vn -0.3917 0.6995 -0.5978
vn 0.0055 0.9682 -0.2501
vn 0.3090 0.6813 0.6635
vn -0.0214 0.9985 -0.0499
vn -0.0732 -0.8085 0.5839
vn 0.0374 -0.5081 0.8605
vn 0.9857 0.0702 0.1529
vn 0.9862 0.1552 0.0568
vn 0.9305 0.1837 0.3168
vn 0.3332 0.9131 0.2351
vn 0.0521 0.9825 -0.1786
vn 0.9535 -0.0994 -0.2846
vn -0.0002 0.9990 0.0440
vn -0.3901 0.3148 0.8653
vn 0.0418 0.9991 -0.0025
vn -0.1193 -0.9906 -0.0672
vn -0.1190 -0.9908 -0.0652
vn -0.1190 -0.9908 -0.0651
vn 0.3522 -0.0074 0.9359
vn 0.6152 0.7831 0.0906
vn -0.0867 -0.9914 -0.0979
vn -0.0939 -0.9881 -0.1215
vn -0.0882 -0.9905 -0.1057
vt 0.466717 0.613458
vt 0.455505 0.623488
vt 0.455505 0.573900
vt 0.133468 0.646640
vt 0.148446 0.679031
vt 0.171778 0.837829
vt 0.078000 0.997684
vt 0.081517 0.982387
vt 0.099155 0.994250
vt 0.377516 0.055745
vt 0.417548 0.038484
vt 0.413298 0.215862
vt 0.573990 0.622377
vt 0.555806 0.570232
vt 0.562672 0.570137
vt 0.037309 0.581828
vt 0.002316 0.939701
vt 0.018009 0.545522
vt 0.386911 0.002316
vt 0.450874 0.005334
vt 0.388157 0.024807
vt 0.100866 0.521322
vt 0.103650 0.491264
vt 0.023724 0.962619
vt 0.009414 0.966887
vt 0.409245 0.535666
vt 0.433170 0.491264
vt 0.433170 0.582234
vt 0.370586 0.605609
vt 0.361196 0.574332
vt 0.390461 0.560328
vt 0.115941 0.549984
vt 0.097203 0.562816
vt 0.384477 0.235037
vt 0.484346 0.610316
vt 0.471348 0.603031
vt 0.484346 0.573900
vt 0.390461 0.610463
vt 0.236299 0.666904
vt 0.176409 0.513442
vt 0.236299 0.491264
vt 0.304925 0.682163
vt 0.335593 0.491264
vt 0.335593 0.699285
vt 0.552555 0.565506
vt 0.566562 0.510702
vt 0.577594 0.565506
vt 0.545292 0.508296
vt 0.521967 0.515952
vt 0.547924 0.503794
vt 0.539717 0.558565
vt 0.525960 0.517350
vt 0.493224 0.616981
vt 0.493224 0.589632
vt 0.498911 0.593855
vt 0.517336 0.575927
vt 0.493224 0.585001
vt 0.493224 0.503794
vt 0.340224 0.491264
vt 0.351522 0.550430
vt 0.340224 0.663714
vt 0.404614 0.491264
vt 0.404614 0.555696
vt 0.361196 0.530162
vt 0.541081 0.570272
vt 0.541081 0.623724
vt 0.521967 0.579773
vt 0.582225 0.610247
vt 0.599748 0.563277
vt 0.609497 0.610247
vt 0.428289 0.586991
vt 0.419483 0.608435
vt 0.419458 0.586865
vt 0.498131 0.241864
vt 0.527311 0.369757
vt 0.455506 0.499163
vt 0.818913 0.165558
vt 0.455506 0.018418
vt 0.888966 0.002316
vt 0.614128 0.633672
vt 0.614128 0.562945
vt 0.627915 0.626374
vt 0.717665 0.346331
vt 0.176766 0.360557
vt 0.450874 0.486633
vt 0.339331 0.061598
vt 0.086600 0.218805
vt 0.455506 0.566855
vt 0.481590 0.506316
vt 0.488593 0.569269
vt 0.076382 0.984733
vt 0.115941 0.996609
vt 0.612297 0.541764
vt 0.612297 0.503794
vt 0.621846 0.525931
vt 0.005301 0.047752
vt 0.002316 0.019085
vt 0.552555 0.622377
vt 0.322264 0.506419
vt 0.183928 0.635945
vt 0.450140 0.599402
vt 0.437801 0.607278
vt 0.437801 0.491264
vt 0.561556 0.503794
vt 0.071514 0.977636
vt 0.541734 0.562259
vt 0.547924 0.565641
vt 0.582225 0.503794
vt 0.607666 0.503902
vt 0.607666 0.556278
vt 0.590569 0.562945
vt 0.428289 0.608571
vt 0.501016 0.236476
vt 0.455506 0.503794
vt 0.240930 0.491264
vt 0.300294 0.515797
vt 0.293916 0.638201
vt 0.414827 0.586865
vt 0.414827 0.624010
vt 0.409245 0.619830
vt 0.600738 0.558314
vt 0.632546 0.565540
vt 0.637326 0.623336
vt 0.632546 0.627382
vt 0.356565 0.493121
vt 0.171778 0.491264
vt 0.010856 0.049988
vt 0.395092 0.677185
vt 0.395092 0.560327
vt 0.399765 0.563125
vt 0.120572 0.535182
vt 0.641957 0.570720
vt 0.644318 0.562945
vt 0.644318 0.632560
vt 0.240930 0.667307
vt 0.637272 0.562945
s 1
usemtl Material
f 13/1/1 21/2/2 20/3/3
s 0
f 10/4/4 5/5/5 2/6/6
s 1
f 42/7/7 28/8/8 15/9/9
s 0
f 18/10/10 22/11/11 23/12/12
f 17/13/13 35/14/14 9/15/15
s 1
f 12/16/16 16/17/17 6/18/18
f 12/19/16 20/20/3 11/21/19
f 20/22/3 6/18/18 4/23/20
f 16/17/17 26/24/21 8/25/22
f 21/26/2 11/27/19 20/28/3
s 0
f 24/29/23 22/30/24 11/31/25
s 1
f 20/22/3 7/32/26 13/33/1
s 0
f 19/34/27 18/10/28 23/12/29
f 37/35/30 19/36/31 23/37/32
f 24/29/33 11/31/34 21/38/35
f 23/39/36 38/40/36 24/41/36
f 23/42/37 21/43/38 37/44/39
f 28/45/40 30/46/41 33/47/42
s 1
f 9/48/43 26/49/44 27/50/45
s 0
f 17/51/46 26/49/47 14/52/46
s 1
f 9/53/43 31/54/48 17/55/49
s 0
f 39/56/50 38/57/50 25/58/50
s 1
f 15/59/9 44/60/51 10/61/52
s 0
f 30/62/53 32/63/53 33/64/53
f 35/65/54 36/66/54 34/67/54
f 17/68/55 34/69/55 36/70/55
f 14/71/56 35/72/56 34/73/56
s 1
f 19/74/57 40/75/58 3/76/59
f 10/77/52 13/78/1 15/79/9
f 37/80/60 40/81/58 19/82/57
f 40/75/58 2/83/61 3/76/59
f 2/84/61 19/34/57 3/85/59
f 1/86/62 2/84/61 5/87/63
s 0
f 24/88/64 39/89/64 22/90/64
s 1
f 42/7/7 26/24/21 31/91/48
f 13/33/1 41/92/65 15/9/9
f 41/93/65 42/94/7 15/95/9
f 20/22/3 12/16/16 6/18/18
f 20/22/3 4/23/20 7/32/26
f 1/86/62 18/10/66 19/34/57
s 0
f 27/96/67 26/97/68 12/19/69
s 1
f 42/7/7 31/91/48 28/8/8
s 0
f 17/13/70 36/98/14 35/14/14
s 1
f 12/16/16 26/24/21 16/17/17
s 0
f 23/42/71 24/99/72 21/43/73
f 18/10/74 11/21/75 22/11/76
f 23/39/77 25/100/77 38/40/77
s 1
f 21/101/2 13/102/1 37/103/60
f 28/45/8 27/104/45 30/46/78
f 9/48/43 14/52/79 26/49/44
s 0
f 17/105/80 31/91/81 26/24/82
s 1
f 9/48/43 27/50/45 31/106/48
f 27/50/45 28/107/8 31/106/48
f 28/108/8 33/109/83 32/110/84
s 0
f 17/68/55 14/111/55 34/69/55
f 14/71/56 9/112/56 35/72/56
s 1
f 10/77/52 37/113/60 13/78/1
s 0
f 24/88/85 38/114/85 39/89/85
s 1
f 42/7/7 8/25/22 26/24/21
f 13/33/1 7/32/26 41/92/65
s 0
f 1/86/86 12/19/86 11/21/86
s 1
f 18/10/66 1/86/62 11/21/87
s 0
f 27/96/88 12/19/88 1/86/88
s 1
f 2/83/61 37/113/60 10/77/52
s 0
f 22/115/89 39/116/90 25/117/91
s 1
f 1/86/62 19/34/57 2/84/61
f 2/83/61 40/75/58 37/113/60
f 30/118/78 44/119/51 32/120/84
f 32/110/84 44/121/51 28/108/8
f 27/122/45 43/123/92 44/124/51
f 28/125/8 44/60/51 15/59/9
f 29/126/93 5/5/63 10/4/52
f 1/86/62 29/127/93 27/96/45
f 29/127/93 1/86/62 5/87/63
f 10/128/52 44/129/51 43/130/92
f 43/131/92 29/126/93 10/4/52
f 30/132/78 27/133/45 44/134/51
s 0
f 25/117/94 23/135/95 22/115/96
s 1
f 27/122/45 29/136/93 43/123/92
f 57/1/97 64/3/98 65/2/99
s 0
f 54/4/100 46/6/101 49/5/102
s 1
f 86/7/103 59/9/104 72/8/105
s 0
f 62/10/106 67/12/107 66/11/108
f 61/13/109 53/15/110 79/14/111
s 1
f 56/16/112 50/18/113 60/17/114
f 56/19/112 55/21/115 64/20/98
f 64/22/98 48/23/116 50/18/113
f 60/17/114 52/25/117 70/24/118
f 65/26/99 64/28/98 55/27/115
s 0
f 68/29/119 55/31/120 66/30/121
s 1
f 64/22/98 57/33/97 51/32/122
s 0
f 63/34/123 67/12/124 62/10/125
f 81/35/126 67/37/127 63/36/128
f 68/29/129 65/38/130 55/31/131
f 67/39/132 68/41/132 82/40/132
f 67/42/133 81/44/134 65/43/135
f 72/45/136 77/47/137 74/46/138
s 1
f 53/48/139 71/50/140 70/49/141
s 0
f 61/51/142 58/52/142 70/49/143
s 1
f 53/53/139 61/55/144 75/54/145
s 0
f 83/56/146 69/58/146 82/57/146
s 1
f 59/59/104 54/61/147 88/60/148
s 0
f 74/62/149 77/64/149 76/63/149
f 79/65/150 78/67/150 80/66/150
f 61/68/151 80/70/151 78/69/151
f 58/71/152 78/73/152 79/72/152
s 1
f 63/74/153 47/76/154 84/75/155
f 54/77/147 59/79/104 57/78/97
f 81/80/156 63/82/153 84/81/155
f 84/75/155 47/76/154 46/83/157
f 46/84/157 47/85/154 63/34/153
f 45/86/158 49/87/159 46/84/157
s 0
f 68/88/160 66/90/160 83/89/160
s 1
f 86/7/103 75/91/145 70/24/118
f 57/33/97 59/9/104 85/92/161
f 85/93/161 59/95/104 86/94/103
f 64/22/98 50/18/113 56/16/112
f 64/22/98 51/32/122 48/23/116
f 45/86/158 63/34/153 62/10/162
s 0
f 71/96/163 56/19/164 70/97/165
s 1
f 86/7/103 72/8/105 75/91/145
s 0
f 61/13/166 79/14/111 80/98/111
s 1
f 56/16/112 60/17/114 70/24/118
s 0
f 67/42/167 65/43/168 68/99/169
f 62/10/170 66/11/171 55/21/172
f 67/39/173 82/40/173 69/100/173
s 1
f 65/101/99 81/103/156 57/102/97
f 72/45/105 74/46/174 71/104/140
f 53/48/139 70/49/141 58/52/175
s 0
f 61/105/176 70/24/177 75/91/178
s 1
f 53/48/139 75/106/145 71/50/140
f 71/50/140 75/106/145 72/107/105
f 72/108/105 76/110/179 77/109/180
s 0
f 61/68/151 78/69/151 58/111/151
f 58/71/152 79/72/152 53/112/152
s 1
f 54/77/147 57/78/97 81/113/156
s 0
f 68/88/181 83/89/181 82/114/181
s 1
f 86/7/103 70/24/118 52/25/117
f 57/33/97 85/92/161 51/32/122
s 0
f 45/86/182 55/21/182 56/19/182
s 1
f 62/10/162 55/21/183 45/86/158
s 0
f 71/96/184 45/86/184 56/19/184
s 1
f 46/83/157 54/77/147 81/113/156
s 0
f 66/115/185 69/117/186 83/116/187
s 1
f 45/86/158 46/84/157 63/34/153
f 46/83/157 81/113/156 84/75/155
f 74/118/174 76/120/179 88/119/148
f 76/110/179 72/108/105 88/121/148
f 71/122/140 88/124/148 87/123/188
f 72/125/105 59/59/104 88/60/148
f 73/126/189 54/4/147 49/5/159
f 45/86/158 71/96/140 73/127/189
f 73/127/189 49/87/159 45/86/158
f 54/128/147 87/130/188 88/129/148
f 87/131/188 54/4/147 73/126/189
f 74/132/174 88/134/148 71/133/140
s 0
f 69/117/190 66/115/191 67/135/192
s 1
f 71/122/140 87/123/188 73/136/189
