# Blender 4.2.3 LTS
# www.blender.org
mtllib HollowArrow.mtl
o Cube
v 0.500293 1.000000 -2.259079
v 0.500293 -1.000000 -2.259079
v 0.500293 1.000000 2.259079
v 0.500293 -1.000000 2.259079
v 0.500293 0.000000 -2.928606
v 0.500293 0.000000 2.259079
v 0.500293 1.000000 -1.109777
v 0.500293 -1.000000 -1.109777
v 0.500293 0.000000 -1.109777
v 0.500293 -2.637558 -1.129540
v 0.500293 2.637558 -1.129540
v 0.500293 0.000000 -1.129540
v 0.000000 -1.000000 -2.259079
v 0.000000 1.000000 2.259079
v 0.000000 -1.000000 2.259079
v 0.000000 1.000000 -2.259079
v 0.000000 0.000000 -2.928606
v 0.000000 0.000000 2.259079
v 0.000000 -1.000000 -1.109777
v 0.000000 1.000000 -1.109777
v 0.000000 2.637558 -1.129540
v 0.000000 -2.637558 -1.129540
v -0.500293 1.000000 -2.259079
v -0.500293 -1.000000 -2.259079
v -0.500293 1.000000 2.259079
v -0.500293 -1.000000 2.259079
v -0.500293 0.000000 -2.928606
v -0.500293 0.000000 2.259079
v -0.500293 1.000000 -1.109777
v -0.500293 -1.000000 -1.109777
v -0.500293 0.000000 -1.109777
v -0.500293 -2.637558 -1.129540
v -0.500293 2.637558 -1.129540
v -0.500293 0.000000 -1.129540
vn -0.0000 -1.0000 -0.0000
vn 1.0000 -0.0000 -0.0000
vn -0.0000 0.5563 -0.8310
vn -0.0000 -0.5563 -0.8310
vn -0.0000 -0.0121 0.9999
vn -0.0000 -0.5678 -0.8232
vn -0.0000 0.5678 -0.8232
vn -0.0000 0.0121 0.9999
vn -0.0000 -0.0000 1.0000
vn -0.0000 1.0000 -0.0000
vn -1.0000 -0.0000 -0.0000
vt 0.250000 0.625000
vt 0.375000 0.625000
vt 0.375000 0.750000
vt 0.250000 0.750000
vt 0.500000 0.625000
vt 0.625000 0.625000
vt 0.625000 0.750000
vt 0.500000 0.750000
vt 0.500000 0.375000
vt 0.625000 0.375000
vt 0.625000 0.500000
vt 0.500000 0.500000
vt 0.375000 0.375000
vt 0.375000 0.500000
vt 0.375000 0.562500
vt 0.500000 0.562500
vt 0.625000 0.562500
vt 0.250000 0.562500
vt 0.250000 0.500000
vt 0.750000 0.500000
vt 0.750000 0.562500
vt 0.750000 0.625000
vt 0.500000 0.875000
vt 0.375000 0.875000
vt 0.625000 0.875000
vt 0.750000 0.750000
s 0
usemtl Material
f 19/1/1 8/2/1 4/3/1 15/4/1
f 9/5/2 7/6/2 3/7/2 6/8/2
f 17/9/3 16/10/3 1/11/3 5/12/3
f 13/13/4 17/9/4 5/12/4 2/14/4
f 8/2/2 9/5/2 6/8/2 4/3/2
f 10/15/2 12/16/2 9/5/2 8/2/2
f 12/16/2 11/17/2 7/6/2 9/5/2
f 22/18/5 10/15/5 8/2/5 19/1/5
f 13/19/6 2/14/6 10/15/6 22/18/6
f 5/12/2 1/11/2 11/17/2 12/16/2
f 2/14/2 5/12/2 12/16/2 10/15/2
f 1/11/7 16/20/7 21/21/7 11/17/7
f 11/17/8 21/21/8 20/22/8 7/6/8
f 4/3/9 6/8/9 18/23/9 15/24/9
f 6/8/9 3/7/9 14/25/9 18/23/9
f 7/6/10 20/22/10 14/26/10 3/7/10
f 19/1/1 15/4/1 26/3/1 30/2/1
f 31/5/11 28/8/11 25/7/11 29/6/11
f 17/9/3 27/12/3 23/11/3 16/10/3
f 13/13/4 24/14/4 27/12/4 17/9/4
f 30/2/11 26/3/11 28/8/11 31/5/11
f 32/15/11 30/2/11 31/5/11 34/16/11
f 34/16/11 31/5/11 29/6/11 33/17/11
f 22/18/5 19/1/5 30/2/5 32/15/5
f 13/19/6 22/18/6 32/15/6 24/14/6
f 27/12/11 34/16/11 33/17/11 23/11/11
f 24/14/11 32/15/11 34/16/11 27/12/11
f 23/11/7 33/17/7 21/21/7 16/20/7
f 33/17/8 29/6/8 20/22/8 21/21/8
f 26/3/9 15/24/9 18/23/9 28/8/9
f 28/8/9 18/23/9 14/25/9 25/7/9
f 29/6/10 25/7/10 14/26/10 20/22/10
